<svg width="24" height="24" viewBox="0 0 24 24" fill="none" xmlns="http://www.w3.org/2000/svg">
<path d="M5.68811 20H18.4863C19.2793 20 19.8952 19.7742 20.3339 19.3225C20.778 18.876 21 18.2195 21 17.3528V8.63928C21 7.7779 20.7727 7.12399 20.3181 6.67755C19.8634 6.22585 19.1947 6 18.3119 6H5.51366C4.7207 6 4.1022 6.22585 3.65815 6.67755C3.21938 7.12399 3 7.7779 3 8.63928V17.3528C3 18.2195 3.22731 18.876 3.68194 19.3225C4.14185 19.7742 4.81057 20 5.68811 20ZM5.71982 18.3455C5.37093 18.3455 5.10396 18.2589 4.91894 18.0855C4.73392 17.907 4.64141 17.6338 4.64141 17.2662V8.72594C4.64141 8.36353 4.73392 8.09567 4.91894 7.92234C5.10396 7.74376 5.37093 7.65447 5.71982 7.65447H18.2881C18.6317 7.65447 18.896 7.74376 19.0811 7.92234C19.2661 8.09567 19.3586 8.36616 19.3586 8.73382V17.2741C19.3586 17.6365 19.2661 17.907 19.0811 18.0855C18.896 18.2589 18.6317 18.3455 18.2881 18.3455H5.71982ZM12.0079 15.1705C12.3145 15.1705 12.6132 15.1075 12.904 14.9814C13.1947 14.8501 13.4855 14.64 13.7762 14.3512L20.1119 8.15869L19.0731 7.11086L12.8802 13.193C12.7163 13.3506 12.5656 13.4661 12.4282 13.5397C12.2907 13.6132 12.1507 13.65 12.0079 13.65C11.8705 13.65 11.733 13.6132 11.5956 13.5397C11.4581 13.4609 11.3075 13.3453 11.1436 13.193L4.92687 7.0951L3.88018 8.13506L10.2396 14.3512C10.5304 14.64 10.8211 14.8501 11.1119 14.9814C11.4026 15.1075 11.7013 15.1705 12.0079 15.1705ZM18.9542 18.7079L20.0009 17.6601L14.9815 12.7203L13.9348 13.7524L18.9542 18.7079ZM4.01498 17.6601L5.06167 18.7079L10.089 13.7524L9.03436 12.7203L4.01498 17.6601Z" fill="#D8D8DA"/>
</svg>
