<svg width="56" height="56" viewBox="0 0 56 56" fill="none" xmlns="http://www.w3.org/2000/svg">
<path fill-rule="evenodd" clip-rule="evenodd" d="M28.0608 4.66699C15.2064 4.66699 4.78809 15.0853 4.78809 27.9397C4.78809 38.2203 11.4544 46.9447 20.7038 50.0247C21.8681 50.2347 22.2881 49.5183 22.2881 48.9023C22.2881 48.3493 22.2694 46.884 22.2624 44.945C15.7874 46.3497 14.4201 41.823 14.4201 41.823C13.3654 39.135 11.8371 38.4187 11.8371 38.4187C9.72542 36.9743 11.9981 37.007 11.9981 37.007C14.3361 37.1703 15.5611 39.4057 15.5611 39.4057C17.6378 42.9617 21.0118 41.935 22.3324 41.34C22.5448 39.835 23.1514 38.8083 23.8141 38.2273C18.6481 37.6417 13.2161 35.6443 13.2161 26.724C13.2161 24.1877 14.1238 22.1063 15.6054 20.4823C15.3698 19.892 14.5648 17.5237 15.8364 14.3223C15.8364 14.3223 17.7894 13.6947 22.2344 16.7047C24.1328 16.1882 26.091 15.9246 28.0584 15.9207C30.0258 15.9238 31.9842 16.1875 33.8824 16.7047C38.3298 13.6923 40.2804 14.3223 40.2804 14.3223C41.5521 17.5237 40.7541 19.892 40.5114 20.4823C42.0048 22.1063 42.9008 24.1853 42.9008 26.724C42.9008 35.6677 37.4641 37.6323 32.2794 38.2087C33.1078 38.9273 33.8544 40.346 33.8544 42.516C33.8544 45.6287 33.8264 48.1393 33.8264 48.9023C33.8264 49.5253 34.2418 50.2487 35.4294 50.02C44.6741 46.9353 51.3334 38.218 51.3334 27.9397C51.3334 15.0853 40.9151 4.66699 28.0608 4.66699Z" fill="white"/>
<path fill-rule="evenodd" clip-rule="evenodd" d="M28.0608 4.66699C15.2064 4.66699 4.78809 15.0853 4.78809 27.9397C4.78809 38.2203 11.4544 46.9447 20.7038 50.0247C21.8681 50.2347 22.2881 49.5183 22.2881 48.9023C22.2881 48.3493 22.2694 46.884 22.2624 44.945C15.7874 46.3497 14.4201 41.823 14.4201 41.823C13.3654 39.135 11.8371 38.4187 11.8371 38.4187C9.72542 36.9743 11.9981 37.007 11.9981 37.007C14.3361 37.1703 15.5611 39.4057 15.5611 39.4057C17.6378 42.9617 21.0118 41.935 22.3324 41.34C22.5448 39.835 23.1514 38.8083 23.8141 38.2273C18.6481 37.6417 13.2161 35.6443 13.2161 26.724C13.2161 24.1877 14.1238 22.1063 15.6054 20.4823C15.3698 19.892 14.5648 17.5237 15.8364 14.3223C15.8364 14.3223 17.7894 13.6947 22.2344 16.7047C24.1328 16.1882 26.091 15.9246 28.0584 15.9207C30.0258 15.9238 31.9842 16.1875 33.8824 16.7047C38.3298 13.6923 40.2804 14.3223 40.2804 14.3223C41.5521 17.5237 40.7541 19.892 40.5114 20.4823C42.0048 22.1063 42.9008 24.1853 42.9008 26.724C42.9008 35.6677 37.4641 37.6323 32.2794 38.2087C33.1078 38.9273 33.8544 40.346 33.8544 42.516C33.8544 45.6287 33.8264 48.1393 33.8264 48.9023C33.8264 49.5253 34.2418 50.2487 35.4294 50.02C44.6741 46.9353 51.3334 38.218 51.3334 27.9397C51.3334 15.0853 40.9151 4.66699 28.0608 4.66699Z" fill="white"/>
</svg>
