<svg width="24" height="24" viewBox="0 0 24 24" fill="none" xmlns="http://www.w3.org/2000/svg">
<path d="M16.3816 21C17.1677 21 17.8467 20.8775 18.4184 20.6325C18.9901 20.3875 19.5231 19.996 20.0174 19.4582C20.0531 19.4283 20.0859 19.3924 20.1156 19.3506C20.1514 19.3148 20.1841 19.2789 20.2139 19.243C20.47 18.9562 20.6635 18.6574 20.7945 18.3466C20.9315 18.0359 21 17.7341 21 17.4413C21 17.1006 20.9077 16.7749 20.7231 16.4642C20.5385 16.1534 20.2437 15.8606 19.8387 15.5857L17.1409 13.7032C16.7122 13.4044 16.2655 13.255 15.801 13.255C15.3365 13.255 14.9166 13.4403 14.5414 13.8108L13.8893 14.4652C13.7643 14.5967 13.6392 14.6684 13.5141 14.6803C13.3891 14.6863 13.2491 14.6295 13.0943 14.51C12.9335 14.3965 12.737 14.2441 12.5047 14.0528C12.2725 13.8616 12.0342 13.6554 11.7901 13.4343C11.5519 13.2132 11.3315 13.001 11.129 12.7979C10.9266 12.6006 10.727 12.3945 10.5305 12.1793C10.34 11.9642 10.1583 11.752 9.98561 11.5429C9.8129 11.3337 9.667 11.1425 9.54789 10.9692C9.4407 10.8138 9.39007 10.6734 9.39603 10.5479C9.40794 10.4164 9.47643 10.2879 9.60149 10.1624L10.2447 9.50804C10.6258 9.13154 10.8164 8.71322 10.8164 8.25306C10.8164 7.78693 10.6675 7.33872 10.3697 6.90845L8.42233 4.12958C8.1603 3.74711 7.86849 3.46624 7.5469 3.28696C7.23127 3.1017 6.90074 3.00608 6.55534 3.0001C5.9598 2.99413 5.36725 3.24512 4.77767 3.75309C4.74194 3.78297 4.7062 3.81584 4.67047 3.85169C4.63474 3.88157 4.60199 3.90847 4.57221 3.93237C4.03027 4.44034 3.63127 4.98416 3.37519 5.56383C3.12506 6.14351 3 6.85168 3 7.68832C3 8.59071 3.16675 9.53194 3.50025 10.512C3.83375 11.4861 4.334 12.4811 5.00099 13.4971C5.67395 14.513 6.51663 15.52 7.52903 16.518C8.53548 17.516 9.54194 18.3466 10.5484 19.01C11.5548 19.6793 12.5464 20.1783 13.5231 20.507C14.4998 20.8357 15.4526 21 16.3816 21ZM16.3638 19.4223C15.6074 19.4343 14.8035 19.2759 13.9519 18.9472C13.1002 18.6245 12.2308 18.1584 11.3434 17.5488C10.4561 16.9393 9.58362 16.2072 8.72605 15.3526C7.86253 14.498 7.12109 13.6196 6.50174 12.7172C5.88238 11.8088 5.40596 10.9214 5.07246 10.0548C4.74491 9.18234 4.5871 8.36661 4.59901 7.60765C4.60496 7.12956 4.69132 6.69032 4.85806 6.28993C5.02481 5.88355 5.27494 5.53694 5.60844 5.25009C5.64417 5.21424 5.67692 5.18435 5.7067 5.16045C5.74243 5.13057 5.77816 5.10368 5.8139 5.07977C5.933 4.97818 6.05509 4.90049 6.18015 4.84671C6.31117 4.79292 6.43623 4.76603 6.55534 4.76603C6.83524 4.76603 7.05558 4.89153 7.21638 5.14252L8.86898 7.60765C8.97618 7.77498 9.0268 7.94828 9.02084 8.12756C9.01489 8.30087 8.93151 8.46521 8.77072 8.62059L8.09181 9.28393C7.74045 9.63054 7.56179 9.98911 7.55583 10.3596C7.54988 10.7301 7.65409 11.0708 7.86849 11.3815C8.10074 11.7162 8.42233 12.1196 8.83325 12.5917C9.24417 13.0578 9.65211 13.4881 10.0571 13.8825C10.3489 14.1753 10.6586 14.4741 10.9861 14.7789C11.3136 15.0777 11.6263 15.3556 11.9241 15.6126C12.2218 15.8636 12.4749 16.0608 12.6834 16.2042C12.9871 16.4193 13.3236 16.5269 13.6928 16.5269C14.062 16.5209 14.4194 16.3387 14.7648 15.9801L15.4258 15.3078C15.5806 15.1405 15.7474 15.0538 15.9261 15.0478C16.1047 15.0419 16.2774 15.0927 16.4442 15.2002L18.8293 16.7869C18.9663 16.8765 19.0615 16.9811 19.1151 17.1006C19.1747 17.2142 19.2045 17.3337 19.2045 17.4592C19.2045 17.7102 19.1002 17.9582 18.8918 18.2032C18.868 18.2391 18.8412 18.2749 18.8114 18.3108C18.7876 18.3407 18.7578 18.3735 18.7221 18.4094C18.4422 18.744 18.0968 18.995 17.6859 19.1624C17.2809 19.3297 16.8402 19.4163 16.3638 19.4223Z" fill="#D8D8DA"/>
</svg>
