<svg width="56" height="56" viewBox="0 0 56 56" fill="none" xmlns="http://www.w3.org/2000/svg">
<path fill-rule="evenodd" clip-rule="evenodd" d="M27.9998 51.3337C40.8865 51.3337 51.3332 40.887 51.3332 28.0003C51.3332 15.1137 40.8865 4.66699 27.9998 4.66699C15.1132 4.66699 4.6665 15.1137 4.6665 28.0003C4.6665 40.887 15.1132 51.3337 27.9998 51.3337ZM27.9998 33.8337C29.9328 33.8337 31.4998 32.2667 31.4998 30.3337C31.4998 28.4007 29.9328 26.8337 27.9998 26.8337C26.0668 26.8337 24.4998 28.4007 24.4998 30.3337C24.4998 32.2667 26.0668 33.8337 27.9998 33.8337ZM31.4998 39.667C31.4998 41.6 29.9328 43.167 27.9998 43.167C26.0668 43.167 24.4998 41.6 24.4998 39.667C24.4998 37.734 26.0668 36.167 27.9998 36.167C29.9328 36.167 31.4998 37.734 31.4998 39.667ZM27.9998 23.917C29.9328 23.917 31.4998 22.35 31.4998 20.417C31.4998 18.484 29.9328 16.917 27.9998 16.917C26.0668 16.917 24.4998 18.484 24.4998 20.417C24.4998 22.35 26.0668 23.917 27.9998 23.917ZM21.5832 20.417C21.5832 22.35 20.0162 23.917 18.0832 23.917C16.1502 23.917 14.5832 22.35 14.5832 20.417C14.5832 18.484 16.1502 16.917 18.0832 16.917C20.0162 16.917 21.5832 18.484 21.5832 20.417ZM37.9165 23.917C39.8495 23.917 41.4165 22.35 41.4165 20.417C41.4165 18.484 39.8495 16.917 37.9165 16.917C35.9835 16.917 34.4165 18.484 34.4165 20.417C34.4165 22.35 35.9835 23.917 37.9165 23.917Z" fill="white"/>
</svg>
