<svg width="505" height="244" viewBox="0 0 505 244" fill="none" xmlns="http://www.w3.org/2000/svg">
<path d="M27.0028 206.123L26.3072 206.329L26.2876 207.055L25.5238 235.293L1.95046 242.286L7.57908 118.145L36.7314 109.496L108.996 210.528L85.5787 217.475L69.5386 194.223L69.1267 193.626L68.4311 193.832L27.0028 206.123ZM26.8075 186.771L26.7698 188.149L28.0916 187.757L57.5025 179.032L58.8243 178.639L58.041 177.505L30.7362 137.95L30.3242 137.353L29.6288 137.56L28.8382 137.794L28.1428 138L28.123 138.725L26.8075 186.771ZM147.595 127.534C144.923 127.7 141.086 128.406 138.304 129.232C127.219 132.52 121.219 142.727 124.589 153.788L138.8 201.686L117.315 208.06L92.4102 124.116L113.104 117.977L117.23 131.882L117.514 132.84L118.473 132.556L119.422 132.275L120.14 132.062L120.137 131.313C120.102 120.317 126.14 112.733 135.351 110C137.385 109.397 139.974 108.891 142.005 108.69L147.595 127.534ZM180.187 97.0317L180.471 97.9904L181.43 97.7059L196.6 93.2053L201.238 108.84L186.068 113.34L185.11 113.625L185.394 114.583L197.824 156.48C198.846 160.073 200.438 162.271 202.614 163.312C204.757 164.338 207.217 164.116 209.681 163.473L209.697 163.469L209.713 163.465C211.845 162.832 215.275 161.611 217.967 160.586L222.902 177.222C220.476 178.331 216.728 179.847 211.578 181.298L211.569 181.301L211.56 181.303C203.237 183.815 195.817 184 189.944 181.621C184.117 179.261 179.655 174.31 177.329 166.19L177.326 166.181L163.909 120.958L163.625 119.999L162.666 120.283L151.766 123.517L147.127 107.883L158.028 104.649L158.986 104.365L158.702 103.406L152.888 83.8085L174.373 77.4343L180.187 97.0317ZM222.043 59.4834L222.046 59.495L222.05 59.5065C223.865 65.3641 220.085 71.9366 213.589 73.8639C207.013 75.8149 200.252 72.3659 198.506 66.4788C196.713 60.4381 200.516 53.9366 207.074 51.9048C213.599 50.0552 220.325 53.4292 222.043 59.4834ZM247.592 104.911L247.588 104.901C245.203 97.0007 246.676 89.6075 251.408 83.3658C256.165 77.0929 264.263 71.9266 275.198 68.6826C285.887 65.5112 295.197 65.5089 302.534 68.1743C309.523 70.7134 314.798 75.6982 317.825 82.8527L297.683 88.8284C294.425 83.1298 287.715 81.0329 279.88 83.2714L279.871 83.2743L279.861 83.2773C275.945 84.4837 272.692 86.4712 270.618 88.9088C268.536 91.3556 267.608 94.314 268.541 97.3113C269.162 99.554 270.619 101.288 273.076 102.322C275.48 103.335 278.801 103.663 283.189 103.279L299.461 101.892C299.461 101.892 299.462 101.892 299.463 101.892C308.228 101.164 315.015 102.062 320.034 104.562C325.008 107.04 328.343 111.141 330.141 117.06C332.516 125.211 330.869 133.073 325.856 139.761C320.825 146.474 312.369 152.04 301.104 155.425C289.644 158.782 279.903 158.866 272.223 156.201C264.907 153.662 259.378 148.604 255.96 141.314L277.634 134.884C279.303 137.892 281.767 139.897 284.882 140.859C288.218 141.89 292.21 141.698 296.645 140.426L296.654 140.424L296.663 140.421C301.028 139.082 304.513 137.08 306.705 134.606C308.924 132.104 309.821 129.099 308.885 125.945C308.134 123.412 306.453 121.654 303.831 120.667C301.275 119.705 297.845 119.479 293.513 119.85L293.507 119.851L278.432 121.226L278.43 121.227C269.885 122.022 263.052 120.954 257.938 118.212C252.853 115.485 249.373 111.055 247.592 104.911ZM332.035 70.0346L321.135 73.2686L316.496 57.6343L327.397 54.4003L328.355 54.1159L328.071 53.1572L322.257 33.5599L343.742 27.1857L349.556 46.783L349.84 47.7417L350.799 47.4573L365.969 42.9567L370.607 58.591L355.437 63.0916L354.479 63.376L354.763 64.3347L367.193 106.232C368.215 109.824 369.807 112.022 371.983 113.064C374.126 114.089 376.586 113.868 379.05 113.225L379.066 113.221L379.082 113.216C381.214 112.583 384.644 111.362 387.336 110.337L392.271 126.973C389.845 128.082 386.097 129.598 380.947 131.05L380.938 131.052L380.929 131.055C372.606 133.566 365.186 133.752 359.313 131.373C353.486 129.012 349.024 124.062 346.698 115.941L346.695 115.932L333.278 70.7089L332.994 69.7502L332.035 70.0346ZM391.412 9.23477L391.415 9.24637L391.419 9.25788C393.234 15.1155 389.454 21.688 382.958 23.6153C376.382 25.5663 369.621 22.1173 367.875 16.2302C366.082 10.1895 369.885 3.68795 376.443 1.65617C382.968 -0.193402 389.694 3.18063 391.412 9.23477ZM453.671 33.4316L453.663 33.4338L453.655 33.4361C447.757 35.2313 443.553 39.2118 441.488 44.8762C439.435 50.505 439.521 57.7116 441.976 65.987C444.475 74.4123 448.32 80.6107 453.105 84.2672C457.925 87.9505 463.625 88.9939 469.618 87.2159C473.936 85.935 477.346 83.4513 479.509 79.9876C481.546 76.7253 482.434 72.6634 482.008 68.0563L502.164 62.0764C504.143 71.3329 502.703 80.0161 498.189 87.2261C493.504 94.7081 485.453 100.69 474.268 104.051C461.325 107.848 449.729 106.415 440.443 100.895C431.145 95.3676 424.056 85.6787 420.269 72.7741L420.268 72.7683C416.393 59.8516 417.134 47.8618 421.963 38.1851C426.788 28.5176 435.746 21.051 448.52 17.2611C459.404 14.0319 469.399 14.5121 477.469 18.1098C485.246 21.5765 491.314 27.9711 494.703 36.9136L474.541 42.8955C472.522 39.0873 469.721 36.123 466.295 34.3809C462.632 32.5187 458.333 32.0936 453.671 33.4316ZM228.231 83.821L253.135 167.765L231.65 174.139L206.746 90.1951L228.231 83.821ZM397.6 33.5724L422.504 117.516L401.019 123.89L376.115 39.9465L397.6 33.5724Z" stroke="#48494E" stroke-width="2"/>
</svg>
