<svg width="482" height="299" viewBox="0 0 482 299" fill="none" xmlns="http://www.w3.org/2000/svg">
<path d="M51.2273 271.67L51.5117 272.629L52.4704 272.344L68.1246 267.7C79.1923 264.416 86.9448 258.994 90.8933 250.964C94.832 242.955 94.8745 232.572 91.0273 219.604C87.2146 206.753 81.5392 198.153 73.9037 193.632C66.2501 189.099 56.8414 188.79 45.8528 192.05L30.0404 196.741L29.0817 197.026L29.3662 197.985L51.2273 271.67ZM112.828 213.134L112.829 213.139C118.125 230.847 117.105 246.475 110.548 258.923C103.993 271.367 91.8288 280.775 74.5561 285.899L35.1934 297.577L1.79781 185.013L41.6349 173.194C58.669 168.141 73.8652 169.387 86.0705 176.202C98.279 183.018 107.634 195.483 112.828 213.134ZM176.076 240.662C184.019 238.22 188.981 233.081 190.063 227.05L210.55 220.972C211.265 236.726 200.552 250.327 180.231 256.44C167.268 260.243 155.677 259.117 146.37 253.787C137.057 248.453 129.901 238.836 125.962 225.415L125.96 225.409C122.051 212.375 122.838 200.326 127.618 190.651C132.393 180.985 141.201 173.59 153.533 169.932C164.598 166.649 175.453 167.227 184.581 172.138C193.703 177.045 201.231 186.351 205.512 200.779L207.198 206.461L149.493 223.581L148.534 223.866L148.819 224.824C150.798 231.495 154.403 236.402 159.176 239.167C163.955 241.935 169.784 242.484 176.06 240.667L176.068 240.664L176.076 240.662ZM144.443 210.072L144.693 211.091L145.699 210.793L182.225 199.956L183.191 199.67L182.897 198.706C181.242 193.278 177.939 189.108 173.635 186.721C169.328 184.332 164.089 183.767 158.645 185.425C147.326 188.697 141.867 199.564 144.443 210.072ZM255.627 140.847L278.38 134.096L273.758 226.8L248.868 234.184L194.591 158.955L217.189 152.25L253.104 207.941L253.511 208.57L254.229 208.357L255.178 208.076L255.897 207.863L255.894 207.113L255.627 140.847ZM341.96 191.447C349.903 189.005 354.865 183.866 355.947 177.835L376.434 171.757C377.149 187.511 366.436 201.112 346.115 207.225C333.152 211.028 321.561 209.902 312.254 204.572C302.941 199.239 295.785 189.621 291.846 176.2L291.844 176.195C287.935 163.161 288.722 151.112 293.502 141.437C298.277 131.771 307.085 124.376 319.417 120.717C330.482 117.434 341.337 118.012 350.465 122.923C359.587 127.83 367.115 137.136 371.396 151.564L373.082 157.246L315.377 174.366L314.418 174.651L314.703 175.61C316.682 182.281 320.287 187.187 325.06 189.952C329.839 192.72 335.668 193.27 341.944 191.452L341.952 191.45L341.96 191.447ZM310.327 160.858L310.577 161.877L311.583 161.578L348.109 150.742L349.075 150.455L348.781 149.491C347.126 144.064 343.823 139.894 339.519 137.506C335.212 135.117 329.973 134.552 324.529 136.211C313.21 139.482 307.751 150.349 310.327 160.858ZM413.409 139.963L413.407 139.957C409.497 126.921 410.258 114.927 415.104 105.279C419.946 95.6385 428.921 88.2291 441.659 84.45C454.436 80.6592 466 81.9754 475.326 87.4125C484.66 92.8543 491.859 102.488 495.77 115.525C499.614 128.625 498.838 140.647 493.988 150.318C489.142 159.981 480.173 167.41 467.408 171.24C454.659 174.979 443.09 173.644 433.768 168.185C424.438 162.721 417.252 153.062 413.409 139.963ZM462.734 154.928L462.746 154.924C469.05 153.008 473.015 148.577 474.78 142.7C476.531 136.87 476.113 129.655 473.811 122.04C471.576 114.363 467.975 108.029 463.318 104.058C458.624 100.054 452.873 98.4774 446.549 100.354C440.075 102.274 436.052 106.742 434.267 112.672C432.498 118.553 432.935 125.829 435.209 133.492C437.471 141.117 441.055 147.396 445.736 151.321C450.456 155.278 456.255 156.805 462.734 154.928ZM535.986 135.077L549.353 180.132L527.868 186.506L493.393 70.3056L514.562 64.0253L518.547 77.4558L518.831 78.4145L519.79 78.1301L520.739 77.8486L521.35 77.6673L521.443 77.037C522.017 73.181 523.336 68.7298 526.235 64.7334C529.124 60.752 533.62 57.1668 540.65 55.0811C549.878 52.3435 559.381 53.4071 567.636 58.7126C575.902 64.0248 583.008 73.6518 587.282 88.2L587.284 88.2052C591.531 102.379 590.993 114.322 587.073 123.391C583.16 132.444 575.838 138.726 566.305 141.555C552.778 145.568 543.572 139.863 538.326 133.942L537.903 133.465L537.293 133.646L536.66 133.834L535.701 134.118L535.986 135.077ZM644.633 101.65C652.577 99.2074 657.538 94.0683 658.62 88.038L679.107 81.9598C679.822 97.7134 669.109 111.315 648.788 117.428C635.825 121.231 624.235 120.105 614.927 114.775C605.614 109.441 598.459 99.8239 594.519 86.4027L594.517 86.3971C590.608 73.3633 591.395 61.3142 596.175 51.6393C600.95 41.9732 609.758 34.5781 622.09 30.9195C633.156 27.6365 644.011 28.2148 653.138 33.1254C662.26 38.0328 669.789 47.3384 674.069 61.7665L675.755 67.449L618.05 84.569L617.091 84.8534L617.376 85.8121C619.355 92.4831 622.96 97.39 627.733 100.155C632.513 102.923 638.341 103.472 644.617 101.655L644.625 101.652L644.633 101.65ZM553.9 127.02L553.913 127.016C560.193 125.108 564.254 120.844 566.109 115.084C567.948 109.372 567.603 102.256 565.277 94.5595C563.065 86.9607 559.542 80.8907 554.924 77.1774C550.263 73.4302 544.549 72.139 538.185 74.0271C532.026 75.8546 527.943 79.9166 526.05 85.5435C524.173 91.1213 524.472 98.1512 526.833 105.965C529.127 113.844 532.759 119.987 537.407 123.732C542.092 127.507 547.756 128.798 553.9 127.02ZM613 71.0603L613.25 72.0793L614.256 71.7809L650.783 60.9442L651.749 60.6576L651.455 59.6938C649.8 54.2662 646.496 50.0961 642.192 47.7086C637.885 45.3199 632.647 44.7547 627.203 46.413C615.884 49.6847 610.424 60.5517 613 71.0603ZM727.113 20.7555C724.44 20.9214 720.603 21.6277 717.821 22.4531C706.735 25.742 700.735 35.9505 704.107 47.0132L718.317 94.9074L696.832 101.281L671.927 17.3379L692.622 11.1984L696.747 25.1033L697.031 26.062L697.99 25.7775L698.939 25.4961L699.657 25.2831L699.654 24.5342C699.619 13.5388 705.657 5.95476 714.868 3.22199C716.903 2.61831 719.491 2.11226 721.522 1.91134L727.113 20.7555ZM394.159 191.079L360.763 78.5151L382.248 72.141L415.643 184.705L394.159 191.079Z" fill="#292B37" stroke="#48494E" stroke-width="2"/>
</svg>
